<?xml version="1.0" encoding="UTF-8"?>
<!DOCTYPE svg PUBLIC "-//W3C//DTD SVG 1.1//EN" "http://www.w3.org/Graphics/SVG/1.1/DTD/svg11.dtd">
<!-- Creator: CorelDRAW -->
<svg xmlns="http://www.w3.org/2000/svg" xml:space="preserve" width="2048px" height="2048px" style="shape-rendering:geometricPrecision; text-rendering:geometricPrecision; image-rendering:optimizeQuality; fill-rule:evenodd; clip-rule:evenodd"
viewBox="0 0 2048 2048"
 xmlns:xlink="http://www.w3.org/1999/xlink">
 <defs>
  <style type="text/css">
   <![CDATA[
    .fil2 {fill:none}
    .fil1 {fill:#1AA1B0}
    .fil0 {fill:#26C6DA}
    .fil10 {fill:#DD2C00}
    .fil5 {fill:#FBDEBC}
    .fil3 {fill:#FDEEDB}
    .fil4 {fill:#FF3D00}
    .fil9 {fill:#FFCC00}
    .fil6 {fill:#447A27;fill-rule:nonzero}
    .fil8 {fill:#4F852C;fill-rule:nonzero}
    .fil7 {fill:#558B2F;fill-rule:nonzero}
   ]]>
  </style>
   <clipPath id="id0">
    <path d="M1024 0c565.538,0 1024,458.462 1024,1024 0,565.538 -458.462,1024 -1024,1024 -565.538,0 -1024,-458.462 -1024,-1024 0,-565.538 458.462,-1024 1024,-1024z"/>
   </clipPath>
 </defs>
 <g id="Layer_x0020_1">
  <metadata id="CorelCorpID_0Corel-Layer"/>
  <path class="fil0" d="M1024 0c565.538,0 1024,458.462 1024,1024 0,565.538 -458.462,1024 -1024,1024 -565.538,0 -1024,-458.462 -1024,-1024 0,-565.538 458.462,-1024 1024,-1024z"/>
  <g style="clip-path:url(#id0)">
   <g id="_385691632">
    <g>
     <polygon id="_3650070721" class="fil1" points="583.167,576.351 1719.05,1712.23 1720.25,1714.21 584.369,578.327 "/>
     <polygon id="_365007960" class="fil1" points="1225.89,1461.68 2361.77,2597.56 2361.89,2598.93 2361.99,2600.3 2362.08,2601.67 2362.15,2603.04 2362.2,2604.41 2362.25,2605.78 2362.27,2607.15 2362.28,2608.52 2362.28,2609.89 2362.26,2611.26 2362.23,2612.62 2362.18,2613.99 2362.12,2615.35 2362.04,2616.71 2361.95,2618.07 2361.84,2619.42 2361.72,2620.77 2361.58,2622.12 2361.42,2623.46 2361.25,2624.8 2361.07,2626.14 2360.87,2627.46 2360.66,2628.79 2360.43,2630.11 2360.18,2631.42 2359.92,2632.73 2359.64,2634.03 2359.35,2635.33 2359.05,2636.61 2358.72,2637.89 2358.39,2639.17 2358.03,2640.43 1222.15,1504.55 1222.5,1503.28 1222.84,1502.01 1223.16,1500.73 1223.47,1499.44 1223.76,1498.15 1224.04,1496.85 1224.3,1495.54 1224.54,1494.23 1224.77,1492.91 1224.99,1491.58 1225.19,1490.25 1225.37,1488.92 1225.54,1487.58 1225.7,1486.24 1225.83,1484.89 1225.96,1483.54 1226.07,1482.19 1226.16,1480.83 1226.24,1479.47 1226.3,1478.11 1226.35,1476.74 1226.38,1475.38 1226.4,1474.01 1226.4,1472.64 1226.39,1471.27 1226.36,1469.9 1226.32,1468.53 1226.27,1467.16 1226.2,1465.78 1226.11,1464.41 1226.01,1463.04 "/>
     <polygon id="_365008536" class="fil1" points="1198.24,1542.96 2334.12,2678.85 2313.67,2691.27 1177.78,1555.39 "/>
     <polygon id="_365008416" class="fil1" points="1222.15,1504.55 2358.03,2640.43 2357.61,2641.86 2357.17,2643.29 2356.71,2644.7 2356.23,2646.1 2355.73,2647.49 2355.21,2648.87 2354.67,2650.24 2354.11,2651.59 2353.53,2652.93 2352.93,2654.26 2352.31,2655.58 2351.67,2656.88 2351.01,2658.17 2350.33,2659.45 2349.63,2660.71 2348.9,2661.96 2348.16,2663.19 2347.4,2664.4 2346.62,2665.6 2345.81,2666.78 2344.99,2667.95 2344.15,2669.1 2343.28,2670.23 2342.4,2671.35 2341.49,2672.44 2340.56,2673.52 2339.61,2674.58 2338.65,2675.62 2337.66,2676.64 2336.65,2677.64 2335.62,2678.62 2334.56,2679.58 1198.68,1543.7 1199.74,1542.74 1200.77,1541.76 1201.78,1540.76 1202.76,1539.74 1203.73,1538.7 1204.68,1537.64 1205.61,1536.56 1206.51,1535.46 1207.4,1534.35 1208.27,1533.22 1209.11,1532.07 1209.93,1530.9 1210.74,1529.72 1211.52,1528.52 1212.28,1527.3 1213.02,1526.07 1213.74,1524.83 1214.45,1523.57 1215.13,1522.29 1215.79,1521 1216.43,1519.7 1217.05,1518.38 1217.65,1517.05 1218.23,1515.71 1218.79,1514.35 1219.33,1512.99 1219.85,1511.61 1220.35,1510.22 1220.83,1508.82 1221.29,1507.4 1221.73,1505.98 "/>
     <polygon id="_365008464" class="fil1" points="1177.78,1555.39 2313.67,2691.27 2314.17,2692.1 1178.29,1556.22 "/>
     <polygon id="_365008824" class="fil1" points="1178.29,1556.22 2314.17,2692.1 2312.76,2692.63 2311.32,2693.14 2309.86,2693.61 2308.38,2694.06 2306.88,2694.47 2305.35,2694.86 2303.81,2695.22 2302.24,2695.54 1166.36,1559.66 1167.93,1559.33 1169.47,1558.98 1171,1558.59 1172.5,1558.17 1173.98,1557.73 1175.44,1557.25 1176.87,1556.75 "/>
     <polygon id="_365008872" class="fil1" points="1166.36,1559.66 2302.24,2695.54 2300.25,2695.94 2298.27,2696.33 2296.31,2696.72 2294.37,2697.11 2292.43,2697.49 2290.51,2697.87 2288.61,2698.26 2286.72,2698.63 2284.84,2699.01 2282.98,2699.38 2281.13,2699.75 2279.3,2700.12 2277.47,2700.49 2275.67,2700.85 2273.87,2701.21 2272.09,2701.57 1136.21,1565.69 1137.99,1565.33 1139.78,1564.97 1141.59,1564.61 1143.41,1564.24 1145.25,1563.87 1147.1,1563.5 1148.96,1563.13 1150.84,1562.75 1152.73,1562.37 1154.63,1561.99 1156.55,1561.61 1158.48,1561.22 1160.43,1560.84 1162.39,1560.45 1164.37,1560.06 "/>
     <polygon id="_365008992" class="fil1" points="1136.21,1565.69 2272.09,2701.57 2258.64,2704.27 2245.9,2706.81 2233.83,2709.17 2222.4,2711.33 2211.58,2713.29 2201.34,2715.02 2191.64,2716.52 2182.46,2717.76 2173.76,2718.73 2165.52,2719.41 2157.69,2719.8 2150.26,2719.87 2143.18,2719.61 2136.42,2719.01 2129.97,2718.04 2123.77,2716.7 2117.81,2714.97 2112.04,2712.83 2106.45,2710.27 2100.99,2707.27 2095.63,2703.83 2090.35,2699.91 2085.11,2695.51 949.234,1559.63 954.471,1564.03 959.752,1567.94 965.105,1571.39 970.565,1574.39 976.161,1576.95 981.926,1579.09 987.889,1580.82 994.085,1582.16 1000.54,1583.12 1007.3,1583.73 1014.38,1583.99 1021.81,1583.92 1029.64,1583.53 1037.88,1582.84 1046.58,1581.88 1055.76,1580.64 1065.46,1579.14 1075.7,1577.41 1086.52,1575.45 1097.95,1573.29 1110.02,1570.93 1122.76,1568.39 "/>
     <polygon id="_365009736" class="fil1" points="711.312,595.815 1847.19,1731.7 1848.16,1732.7 1849.12,1733.71 1850.06,1734.73 1850.98,1735.76 1851.9,1736.8 716.017,600.917 715.103,599.878 714.175,598.848 713.234,597.827 712.28,596.816 "/>
     <polygon id="_365009832" class="fil1" points="1459.39,650.259 2595.27,1786.14 2610.46,1805.48 2624.73,1825.54 2638.05,1846.31 2650.37,1867.74 2661.67,1889.81 2671.92,1912.49 2681.09,1935.73 2689.13,1959.51 2696.03,1983.8 2701.75,2008.56 2706.25,2033.77 2709.5,2059.38 2711.48,2085.37 2712.14,2111.71 2711.72,2132.82 2710.45,2153.71 2708.35,2174.37 2705.44,2194.78 2701.74,2214.92 2697.25,2234.77 2692.01,2254.33 2686.02,2273.57 2679.31,2292.48 2671.88,2311.04 2663.76,2329.23 2654.96,2347.04 2645.49,2364.45 2635.39,2381.45 2624.65,2398.01 2613.29,2414.13 2601.35,2429.78 2588.82,2444.95 2575.73,2459.62 2562.09,2473.78 2547.92,2487.4 2533.24,2500.49 2518.06,2513 2502.4,2524.94 2486.27,2536.28 2469.7,2547 2452.69,2557.1 2435.27,2566.55 2417.46,2575.34 2399.25,2583.44 2380.69,2590.86 2361.77,2597.56 1225.89,1461.68 1244.81,1454.98 1263.37,1447.56 1281.57,1439.45 1299.39,1430.67 1316.81,1421.22 1333.82,1411.12 1350.39,1400.39 1366.52,1389.05 1382.18,1377.12 1397.36,1364.6 1412.04,1351.52 1426.21,1337.9 1439.85,1323.74 1452.94,1309.07 1465.47,1293.9 1477.41,1278.24 1488.77,1262.13 1499.5,1245.56 1509.61,1228.57 1519.08,1211.16 1527.88,1193.35 1536,1175.16 1543.43,1156.6 1550.14,1137.69 1556.13,1118.45 1561.37,1098.89 1565.85,1079.03 1569.56,1058.89 1572.47,1038.49 1574.57,1017.83 1575.84,996.94 1576.26,975.831 1575.6,949.492 1573.62,923.5 1570.37,897.884 1565.87,872.679 1560.15,847.916 1553.25,823.628 1545.21,799.847 1536.04,776.604 1525.79,753.931 1514.49,731.862 1502.16,710.429 1488.85,689.662 1474.58,669.595 "/>
    </g>
    <path id="_385692712" class="fil1" d="M1064.43 464c282.677,0 511.831,229.155 511.831,511.831 0,226.259 -146.811,418.229 -350.371,485.844 1.30984,14.5937 0.108662,29.4177 -3.74174,42.8752 -4.38426,15.326 -12.1358,29.0173 -23.4685,39.15l-0.447638 -0.735827 -20.4508 12.4205 0.506693 0.83504c-3.74764,1.45158 -7.72442,2.60906 -11.9315,3.44055 -10.6559,2.10709 -20.6894,4.12323 -30.1488,6.02599 -147.31,29.6244 -169.075,33.9992 -237.418,-69.8292 -62.1331,-94.4009 -146.685,-225.756 -210.535,-329.268 -63.9686,-103.704 -142.971,-238.432 -193.29,-338.417 -44.5205,-88.4658 -25.415,-112.21 60.4406,-218.899 6.03662,-7.50119 12.4382,-15.4571 19.2059,-23.9221 2.67756,-3.34961 5.53701,-6.34489 8.55355,-9.00119l1.20118 1.97599 20.4496 -12.4205 -1.13976 -1.87795c14.2158,-5.38583 29.9398,-5.95158 45.5611,-2.77559 17.902,3.63898 35.7862,12.3532 50.6516,24.2362 5.85473,4.68071 11.289,9.86103 16.1256,15.4276 91.3607,-84.9556 213.816,-136.917 348.416,-136.917z"/>
   </g>
  </g>
  <path class="fil2" d="M1024 0c565.538,0 1024,458.462 1024,1024 0,565.538 -458.462,1024 -1024,1024 -565.538,0 -1024,-458.462 -1024,-1024 0,-565.538 458.462,-1024 1024,-1024z"/>
  <path class="fil3" d="M1064.43 537.013c242.353,0 438.818,196.465 438.818,438.818 0,242.354 -196.465,438.819 -438.818,438.819 -55.467,0 -108.517,-10.3181 -157.371,-29.0953l-273.805 -491.52c38.3268,-203.258 216.78,-357.022 431.176,-357.022z"/>
  <path class="fil4" d="M1064.43 464c282.677,0 511.831,229.155 511.831,511.831 0,282.677 -229.154,511.832 -511.831,511.832 -36.6012,0 -72.2918,-3.87166 -106.717,-11.1744l-57.8528 -103.857c50.687,21.0461 106.266,32.687 164.57,32.687 237.2,0 429.487,-192.287 429.487,-429.488 0,-237.2 -192.287,-429.487 -429.487,-429.487 -213.758,0 -391.014,156.169 -423.966,360.631l-57.9189 -103.974c70.8898,-197.627 259.866,-339.001 481.885,-339.001z"/>
  <path class="fil5" d="M1064.43 572.796c222.59,0 403.035,180.445 403.035,403.035 0,222.591 -180.445,403.036 -403.035,403.036 -67.3241,0 -130.779,-16.5307 -186.565,-45.7193l-93.0698 -167.074c60.8752,89.3068 163.402,147.952 279.634,147.952 186.778,0 338.194,-151.415 338.194,-338.195 0,-186.778 -151.415,-338.194 -338.194,-338.194 -186.778,0 -338.194,151.415 -338.194,338.194 0,48.841 10.3677,95.256 29.002,137.184l-92.7733 -166.543c15.0414,-208.883 189.249,-373.676 401.965,-373.676z"/>
  <path class="fil6" d="M1015.42 1241.96c18.0437,-5.18859 36.9083,-5.37874 54.6579,-1.04173 26.4331,6.45709 50.4296,22.9595 65.6067,47.9469l74.0481 121.922c6.81142,11.2134 11.6032,24.1878 14.2642,37.6406 3.69095,18.6709 3.17835,38.5583 -1.84606,56.1213 -4.38544,15.326 -12.137,29.0185 -23.4697,39.15l-183.261 -301.739z"/>
  <path class="fil6" d="M603.678 564.029c14.2158,-5.38583 29.9398,-5.9504 45.5622,-2.77559 17.9008,3.63898 35.7851,12.3532 50.6504,24.2374 10.7114,8.56182 20.015,18.7973 26.8252,30.0107l74.0493 121.921c15.176,24.9886 18.7559,53.8902 12.2988,80.3245 -4.33583,17.7496 -13.2012,34.4032 -26.1248,48.0213l-183.261 -301.739z"/>
  <path class="fil7" d="M705.851 919.347l224.639 369.867 59.2666 -35.9953c1.10197,-0.669686 2.21221,-1.31457 3.32953,-1.93937l185.205 304.941c-3.74764,1.45158 -7.72442,2.60788 -11.9315,3.44055 -10.6547,2.10709 -20.6894,4.12441 -30.1488,6.02599 -147.31,29.6244 -169.075,33.9992 -237.418,-69.8292 -62.1331,-94.4009 -146.685,-225.756 -210.535,-329.268 -63.9686,-103.704 -142.971,-238.432 -193.29,-338.416 -44.5217,-88.467 -25.415,-112.211 60.4406,-218.9 6.03662,-7.50119 12.4382,-15.4571 19.2059,-23.9221 2.67756,-3.34961 5.53701,-6.34489 8.55355,-9.00119l185.206 304.941c-1.07008,0.702756 -2.15433,1.39016 -3.2563,2.05984l-59.2666 35.9953z"/>
  <path class="fil8" d="M705.876 919.39l224.571 369.755c-14.2512,8.48859 -32.8772,3.87638 -41.5052,-10.3276l-193.037 -317.836c-8.62678,-14.2039 -4.1315,-32.8595 9.97087,-41.5914z"/>
  <polygon class="fil9" points="766.734,878.594 785.751,863.811 604.819,565.907 584.369,578.328 "/>
  <polygon class="fil9" points="995.417,1255.12 1017.3,1245.06 1198.24,1542.96 1177.78,1555.39 "/>
  <path class="fil10" d="M1134.59 1004.88l53.726 -127.299 0 127.299 -53.726 0zm-48.887 48.4028l102.613 0 0 61.4693 52.2744 0 0 -61.4693 25.1693 0 0 -48.4028 -25.1693 0 0 -228.944 -58.0831 0 -96.8044 228.944 0 48.4028zm-73.5721 -194.094c-0.080315,13.8744 -2.01732,26.3788 -5.80867,37.4315 -3.79016,11.0516 -8.87245,21.1358 -15.0839,30.2504 -6.29292,9.19725 -13.1492,17.9091 -20.6516,26.1378 -7.50355,8.30906 -14.9256,16.5378 -22.428,24.8469 -7.50119,8.30788 -14.3587,17.1024 -20.6504,26.3788 -6.2126,9.27639 -11.2134,19.5225 -15.0036,30.8162 -3.87284,11.2134 -5.80985,23.8784 -5.89016,38.0764l0 41.6256 153.918 0 0 -48.4016 -100.675 0c-0.243307,-1.20945 -0.403937,-2.42008 -0.403937,-3.62953 -0.0814961,-1.21181 -0.0814961,-2.42126 -0.0814961,-3.62953 0.0814961,-7.90749 2.09764,-15.6508 5.88898,-23.1532 3.79134,-7.50355 8.87363,-15.0059 15.0862,-22.5886 6.29174,-7.58268 13.2307,-15.4087 20.7319,-23.5559 7.50237,-8.14725 15.0851,-16.7788 22.5886,-25.8945 7.50237,-9.19607 14.439,-19.1197 20.6504,-29.7685 6.29292,-10.7291 11.3752,-22.4256 15.1665,-35.0906 3.7937,-12.6662 5.80867,-26.6209 5.88898,-41.7886 0,-18.15 -2.98347,-33.5587 -8.95512,-46.2237 -5.9693,-12.665 -14.8417,-22.265 -26.6197,-28.9618 -11.7791,-6.61418 -26.3799,-9.92127 -43.8048,-10.0004 -17.4248,0.0791339 -32.0268,3.38622 -43.8036,10.0004 -11.7791,6.69686 -20.6528,16.2969 -26.6221,28.9618 -5.9693,12.665 -8.95394,28.0736 -8.95394,46.2237l0 32.9138 50.3374 0 0 -36.3012c0.0826772,-12.0213 2.58189,-20.5701 7.42205,-25.8154 4.92048,-5.1626 11.6162,-7.74331 20.1673,-7.58268 5.64804,-0.080315 10.5685,0.968505 14.6823,3.22677 4.11496,2.25827 7.26024,6.2126 9.52087,11.8583 2.25827,5.64804 3.38622,13.5532 3.38622,23.6374z"/>
 </g>
</svg>
